<svg width="25" height="25" viewBox="0 0 25 25" fill="none" xmlns="http://www.w3.org/2000/svg">
<path d="M18.2763 1.28351C17.1503 1.30102 16.0488 1.61536 15.0831 2.19478C14.1174 2.7742 13.3217 3.59818 12.7763 4.58351C12.231 3.59818 11.4353 2.7742 10.4696 2.19478C9.50387 1.61536 8.40238 1.30102 7.27633 1.28351C5.48127 1.3615 3.79003 2.14676 2.57211 3.46774C1.35419 4.78872 0.708575 6.53803 0.776326 8.33351C0.776326 15.1085 11.7323 22.9335 12.1983 23.2655L12.7763 23.6745L13.3543 23.2655C13.8203 22.9355 24.7763 15.1085 24.7763 8.33351C24.8441 6.53803 24.1985 4.78872 22.9806 3.46774C21.7626 2.14676 20.0714 1.3615 18.2763 1.28351ZM12.7763 21.2125C9.52333 18.7825 2.77633 12.8125 2.77633 8.33351C2.70797 7.06822 3.1427 5.82724 3.98569 4.88121C4.82869 3.93518 6.01156 3.36086 7.27633 3.28351C8.5411 3.36086 9.72397 3.93518 10.567 4.88121C11.41 5.82724 11.8447 7.06822 11.7763 8.33351H13.7763C13.708 7.06822 14.1427 5.82724 14.9857 4.88121C15.8287 3.93518 17.0116 3.36086 18.2763 3.28351C19.5411 3.36086 20.724 3.93518 21.567 4.88121C22.41 5.82724 22.8447 7.06822 22.7763 8.33351C22.7763 12.8145 16.0293 18.7825 12.7763 21.2125Z" fill="#253D4E"/>
</svg>
