<svg width="20" height="21" viewBox="0 0 20 21" fill="none" xmlns="http://www.w3.org/2000/svg">
<path d="M13.667 3.91046C12.667 3.06296 11.637 2.18379 10.5945 1.14463L10.0003 0.554626L9.417 1.14546C7.54033 3.02713 6.65366 5.91629 6.26866 7.64963C5.97397 7.19288 5.7553 6.69137 5.62116 6.16463L5.26866 4.80379L4.24366 5.76713C2.44783 7.45296 1.25033 9.12546 1.25033 11.8038C1.23356 13.7357 1.86276 15.6178 3.03801 17.1512C4.21325 18.6845 5.86714 19.7813 7.737 20.2672C8.30039 20.4042 8.87542 20.4879 9.4545 20.5172C9.63555 20.5401 9.81783 20.552 10.0003 20.553C10.0961 20.553 10.1895 20.5447 10.2828 20.5388C12.5529 20.4705 14.7071 19.5203 16.288 17.8897C17.8689 16.2591 18.7522 14.0766 18.7503 11.8055C18.7503 8.22713 16.3945 6.22713 13.667 3.91046ZM10.167 18.8722C10.0836 18.8722 10.0003 18.8805 9.91199 18.8797C9.16193 18.8567 8.45015 18.5431 7.92704 18.0051C7.40394 17.4671 7.11047 16.7467 7.10866 15.9963C7.10866 14.9397 7.67533 14.413 8.95783 13.3213C9.28116 13.0463 9.63283 12.7472 10.0028 12.4047C10.327 12.6988 10.642 12.9655 10.9328 13.213C12.2211 14.3063 12.8936 14.9272 12.8936 15.9938C12.8922 16.7309 12.6091 17.4396 12.1022 17.9747C11.5952 18.5098 10.9029 18.8309 10.167 18.8722ZM14.3503 17.3963L14.3336 17.408C14.4832 16.9523 14.5597 16.4759 14.5603 15.9963C14.5603 14.1088 13.322 13.0572 12.012 11.9447C11.5478 11.5513 11.0686 11.1447 10.5903 10.6663L10.0003 10.0772L9.41116 10.6663C8.87116 11.2055 8.34283 11.6555 7.87699 12.0522C6.57033 13.1638 5.44116 14.1247 5.44116 15.9963C5.44294 16.4965 5.52741 16.9929 5.69116 17.4655C4.82371 16.7994 4.12197 15.9418 3.64074 14.9597C3.15951 13.9776 2.91181 12.8975 2.917 11.8038C2.90329 10.3415 3.46928 8.93323 4.49116 7.88713C4.66718 8.24423 4.87585 8.58429 5.1145 8.90296C5.2888 9.13816 5.52811 9.31722 5.80294 9.41806C6.07777 9.5189 6.3761 9.53711 6.66116 9.47046C6.95115 9.4059 7.21641 9.25918 7.42522 9.04786C7.63404 8.83653 7.77757 8.56953 7.83866 8.27879C8.18759 6.3635 8.94226 4.54502 10.052 2.94546C10.9311 3.77879 11.802 4.51629 12.5878 5.18379C15.1978 7.40046 17.0878 9.00213 17.0878 11.8088C17.0898 12.8877 16.844 13.9526 16.3692 14.9214C15.8944 15.8902 15.2042 16.7369 14.3503 17.3963Z" fill="#3BB77E"/>
</svg>
