<svg width="35" height="35" viewBox="0 0 35 35" fill="none" xmlns="http://www.w3.org/2000/svg">
<g clip-path="url(#clip0_6649_7650)">
<path d="M30.6246 18.1184V16.0417C30.6246 12.5607 29.2419 9.22233 26.7805 6.76091C24.319 4.2995 20.9807 2.91669 17.4996 2.91669C14.0187 2.91669 10.6803 4.2995 8.21892 6.76091C5.7575 9.22233 4.3747 12.5607 4.3747 16.0417V18.1184C2.84514 18.7918 1.59336 19.9703 0.828934 21.4566C0.0645064 22.9428 -0.166176 24.6464 0.175507 26.2825C0.51719 27.9184 1.4105 29.3874 2.70588 30.4434C4.00127 31.4994 5.62009 32.0784 7.29136 32.0834H10.208V17.5H7.29136V16.0417C7.29136 13.3342 8.36687 10.7377 10.2813 8.82331C12.1958 6.90887 14.7923 5.83335 17.4996 5.83335C20.2071 5.83335 22.8036 6.90887 24.7181 8.82331C26.6325 10.7377 27.708 13.3342 27.708 16.0417V17.5H24.7913V29.1667H18.958V32.0834H27.708C29.3793 32.0784 30.9981 31.4994 32.2935 30.4434C33.5889 29.3874 34.4822 27.9184 34.8239 26.2825C35.1656 24.6464 34.9349 22.9428 34.1704 21.4566C33.406 19.9703 32.1542 18.7918 30.6246 18.1184ZM7.29136 29.1667C6.13104 29.1667 5.01824 28.7058 4.19777 27.8853C3.37729 27.0648 2.91636 25.952 2.91636 24.7917C2.91636 23.6313 3.37729 22.5185 4.19777 21.6981C5.01824 20.8776 6.13104 20.4167 7.29136 20.4167V29.1667ZM27.708 29.1667V20.4167C28.8683 20.4167 29.9811 20.8776 30.8016 21.6981C31.622 22.5185 32.083 23.6313 32.083 24.7917C32.083 25.952 31.622 27.0648 30.8016 27.8853C29.9811 28.7058 28.8683 29.1667 27.708 29.1667Z" fill="#253D4E"/>
</g>
<defs>
<clipPath id="clip0_6649_7650">
<rect width="35" height="35" fill="white"/>
</clipPath>
</defs>
</svg>
